# xmcd
#
# Track frame offsets: 
#        150
#        42277
#        75667
#        110050
#        135874
#        175414
#        206311
#        260701
#        277273
#
# Disc length: 4171 seconds
#
# Revision: 1
# Processed by: cddbd v1.5.2PL0 Copyright (c) Steve Scherf et al.
# Submitted via: ExactAudioCopy v1.2
#
DISCID=80104909
DTITLE=Charles Mingus - Connoisseur Jazz Cuts - CD 11
DYEAR=2012
DGENRE=Jazz
TTITLE0=Original Faubus Fable
TTITLE1=Better Get It in Your Soul
TTITLE2=Things Ain't what They Used to Be
TTITLE3=Wednesday Night Prayer Meeting
TTITLE4=Mysterious Blues
TTITLE5=Song with Orange
TTITLE6=Haitian Fight Song
TTITLE7=Weird Nightmare
TTITLE8=Celia
EXTD=YEAR: 2012
EXTT0=
EXTT1=
EXTT2=
EXTT3=
EXTT4=
EXTT5=
EXTT6=
EXTT7=
EXTT8=
PLAYORDER=
